<svg width="15" height="17" viewBox="0 0 15 17" fill="none" xmlns="http://www.w3.org/2000/svg">
<path d="M7.5 8.75C8.49456 8.75 9.44839 8.35491 10.1517 7.65165C10.8549 6.94839 11.25 5.99456 11.25 5C11.25 4.00544 10.8549 3.05161 10.1517 2.34835C9.44839 1.64509 8.49456 1.25 7.5 1.25C6.50544 1.25 5.55161 1.64509 4.84835 2.34835C4.14509 3.05161 3.75 4.00544 3.75 5C3.75 5.99456 4.14509 6.94839 4.84835 7.65165C5.55161 8.35491 6.50544 8.75 7.5 8.75ZM7.5 10C6.17392 10 4.90215 9.47322 3.96447 8.53553C3.02678 7.59785 2.5 6.32608 2.5 5C2.5 3.67392 3.02678 2.40215 3.96447 1.46447C4.90215 0.526784 6.17392 0 7.5 0C8.82608 0 10.0979 0.526784 11.0355 1.46447C11.9732 2.40215 12.5 3.67392 12.5 5C12.5 6.32608 11.9732 7.59785 11.0355 8.53553C10.0979 9.47322 8.82608 10 7.5 10ZM13.75 16.25V14.375C13.75 13.8777 13.5525 13.4008 13.2008 13.0492C12.8492 12.6975 12.3723 12.5 11.875 12.5H3.125C2.62772 12.5 2.15081 12.6975 1.79917 13.0492C1.44754 13.4008 1.25 13.8777 1.25 14.375V16.25C1.25 16.4158 1.18415 16.5747 1.06694 16.6919C0.949731 16.8092 0.79076 16.875 0.625 16.875C0.45924 16.875 0.300269 16.8092 0.183058 16.6919C0.0658481 16.5747 0 16.4158 0 16.25V14.375C0 13.5462 0.32924 12.7513 0.915291 12.1653C1.50134 11.5792 2.2962 11.25 3.125 11.25H11.875C12.7038 11.25 13.4987 11.5792 14.0847 12.1653C14.6708 12.7513 15 13.5462 15 14.375V16.25C15 16.4158 14.9342 16.5747 14.8169 16.6919C14.6997 16.8092 14.5408 16.875 14.375 16.875C14.2092 16.875 14.0503 16.8092 13.9331 16.6919C13.8158 16.5747 13.75 16.4158 13.75 16.25Z" fill="#3A68DF"/>
</svg>
