<svg width="20" height="20" viewBox="0 0 20 20" fill="none" xmlns="http://www.w3.org/2000/svg">
<path d="M3.4375 16.875H5.3125C5.48531 16.875 5.625 16.7353 5.625 16.5625V15C5.625 14.8272 5.48531 14.6875 5.3125 14.6875H3.4375C3.26469 14.6875 3.125 14.8272 3.125 15V16.5625C3.125 16.7353 3.26469 16.875 3.4375 16.875ZM3.75 15.3125H5V16.25H3.75V15.3125Z" fill="#1E49B9"/>
<path d="M7.1875 16.875H9.0625C9.23531 16.875 9.375 16.7353 9.375 16.5625V15C9.375 14.8272 9.23531 14.6875 9.0625 14.6875H7.1875C7.01469 14.6875 6.875 14.8272 6.875 15V16.5625C6.875 16.7353 7.01469 16.875 7.1875 16.875ZM7.5 15.3125H8.75V16.25H7.5V15.3125Z" fill="#1E49B9"/>
<path d="M10.9375 16.875H12.8125C12.9853 16.875 13.125 16.7353 13.125 16.5625V15C13.125 14.8272 12.9853 14.6875 12.8125 14.6875H10.9375C10.7647 14.6875 10.625 14.8272 10.625 15V16.5625C10.625 16.7353 10.7647 16.875 10.9375 16.875ZM11.25 15.3125H12.5V16.25H11.25V15.3125Z" fill="#1E49B9"/>
<path d="M3.4375 13.4375H5.3125C5.48531 13.4375 5.625 13.2978 5.625 13.125V11.5625C5.625 11.3897 5.48531 11.25 5.3125 11.25H3.4375C3.26469 11.25 3.125 11.3897 3.125 11.5625V13.125C3.125 13.2978 3.26469 13.4375 3.4375 13.4375ZM3.75 11.875H5V12.8125H3.75V11.875Z" fill="#1E49B9"/>
<path d="M7.1875 13.4375H9.0625C9.23531 13.4375 9.375 13.2978 9.375 13.125V11.5625C9.375 11.3897 9.23531 11.25 9.0625 11.25H7.1875C7.01469 11.25 6.875 11.3897 6.875 11.5625V13.125C6.875 13.2978 7.01469 13.4375 7.1875 13.4375ZM7.5 11.875H8.75V12.8125H7.5V11.875Z" fill="#1E49B9"/>
<path d="M10.9375 13.4375H12.8125C12.9853 13.4375 13.125 13.2978 13.125 13.125V11.5625C13.125 11.3897 12.9853 11.25 12.8125 11.25H10.9375C10.7647 11.25 10.625 11.3897 10.625 11.5625V13.125C10.625 13.2978 10.7647 13.4375 10.9375 13.4375ZM11.25 11.875H12.5V12.8125H11.25V11.875Z" fill="#1E49B9"/>
<path d="M14.6875 13.4375H16.5625C16.7353 13.4375 16.875 13.2978 16.875 13.125V11.5625C16.875 11.3897 16.7353 11.25 16.5625 11.25H14.6875C14.5147 11.25 14.375 11.3897 14.375 11.5625V13.125C14.375 13.2978 14.5147 13.4375 14.6875 13.4375ZM15 11.875H16.25V12.8125H15V11.875Z" fill="#1E49B9"/>
<path d="M3.4375 10H5.3125C5.48531 10 5.625 9.86031 5.625 9.6875V8.125C5.625 7.95219 5.48531 7.8125 5.3125 7.8125H3.4375C3.26469 7.8125 3.125 7.95219 3.125 8.125V9.6875C3.125 9.86031 3.26469 10 3.4375 10ZM3.75 8.4375H5V9.375H3.75V8.4375Z" fill="#1E49B9"/>
<path d="M7.1875 10H9.0625C9.23531 10 9.375 9.86031 9.375 9.6875V8.125C9.375 7.95219 9.23531 7.8125 9.0625 7.8125H7.1875C7.01469 7.8125 6.875 7.95219 6.875 8.125V9.6875C6.875 9.86031 7.01469 10 7.1875 10ZM7.5 8.4375H8.75V9.375H7.5V8.4375Z" fill="#1E49B9"/>
<path d="M10.9375 10H12.8125C12.9853 10 13.125 9.86031 13.125 9.6875V8.125C13.125 7.95219 12.9853 7.8125 12.8125 7.8125H10.9375C10.7647 7.8125 10.625 7.95219 10.625 8.125V9.6875C10.625 9.86031 10.7647 10 10.9375 10ZM11.25 8.4375H12.5V9.375H11.25V8.4375Z" fill="#1E49B9"/>
<path d="M14.6875 10H16.5625C16.7353 10 16.875 9.86031 16.875 9.6875V8.125C16.875 7.95219 16.7353 7.8125 16.5625 7.8125H14.6875C14.5147 7.8125 14.375 7.95219 14.375 8.125V9.6875C14.375 9.86031 14.5147 10 14.6875 10ZM15 8.4375H16.25V9.375H15V8.4375Z" fill="#1E49B9"/>
<path d="M18.75 1.25H16.5625V0.9375C16.5625 0.419688 16.1428 0 15.625 0C15.1072 0 14.6875 0.419688 14.6875 0.9375V1.25H5.3125V0.9375C5.3125 0.419688 4.89281 0 4.375 0C3.85719 0 3.4375 0.419688 3.4375 0.9375V1.25H1.25C0.559062 1.25 0 1.80906 0 2.5V18.75C0 19.4409 0.559062 20 1.25 20H18.75C19.4409 20 20 19.4409 20 18.75V2.5C20 1.80906 19.4409 1.25 18.75 1.25ZM15.3125 0.9375C15.3125 0.764688 15.4522 0.625 15.625 0.625C15.7978 0.625 15.9375 0.764688 15.9375 0.9375V1.875V3.125C15.9375 3.29781 15.7978 3.4375 15.625 3.4375C15.4522 3.4375 15.3125 3.29781 15.3125 3.125V1.875V0.9375ZM4.0625 0.9375C4.0625 0.764688 4.20219 0.625 4.375 0.625C4.54781 0.625 4.6875 0.764688 4.6875 0.9375V1.875V3.125C4.6875 3.29781 4.54781 3.4375 4.375 3.4375C4.20219 3.4375 4.0625 3.29781 4.0625 3.125V1.875V0.9375ZM19.375 18.75C19.375 19.095 19.095 19.375 18.75 19.375H1.25C0.905 19.375 0.625 19.095 0.625 18.75V5.3125H19.375V18.75ZM19.375 4.6875H0.625V2.5C0.625 2.155 0.905 1.875 1.25 1.875H3.4375V3.125C3.4375 3.64281 3.85719 4.0625 4.375 4.0625C4.89281 4.0625 5.3125 3.64281 5.3125 3.125V1.875H14.6875V3.125C14.6875 3.64281 15.1072 4.0625 15.625 4.0625C16.1428 4.0625 16.5625 3.64281 16.5625 3.125V1.875H18.75C19.095 1.875 19.375 2.155 19.375 2.5V4.6875Z" fill="#1E49B9"/>
</svg>
