<svg width="35" height="31" viewBox="0 0 35 31" fill="none" xmlns="http://www.w3.org/2000/svg">
<path d="M31.7197 0H3.28033C1.46849 0 0 1.98252 0 4.42857V26.5714C0 29.0175 1.46849 31 3.28033 31H31.7197C33.5315 31 35 29.0175 35 26.5714V4.42857C35 1.98252 33.5315 0 31.7197 0ZM3.27923 2.95238H31.7186C32.3222 2.95238 32.812 3.61371 32.812 4.42857V7.38095H2.18579V4.42857C2.18579 3.61371 2.67675 2.95238 3.27923 2.95238ZM31.7197 28.0476H3.28033C2.67675 28.0476 2.18688 27.3863 2.18688 26.5714V13.2857H32.8131V26.5714C32.8131 27.3863 32.3232 28.0476 31.7197 28.0476Z" fill="#9DB2CE"/>
</svg>
