<svg width="20" height="20" viewBox="0 0 20 20" fill="none" xmlns="http://www.w3.org/2000/svg">
<path fill-rule="evenodd" clip-rule="evenodd" d="M15.4949 2.07769C15.2216 1.91775 14.8721 2.01267 14.7143 2.28969C13.7273 4.02295 11.5543 4.58535 9.56076 4.52083C9.47254 4.51797 9.38424 4.51654 9.29586 4.51654C5.9436 4.51654 2.70071 6.57502 0.0856642 10.4448L0.0752928 10.46L0.0662213 10.4731C-0.0208844 10.5979 -0.0231079 10.7445 0.0657856 10.8678C1.30932 12.7149 2.69579 14.1513 4.16901 15.1503C5.37122 15.9656 6.00442 17.5814 5.28525 18.8434C5.12743 19.1205 5.22108 19.4747 5.49439 19.6346L5.74184 19.7794C6.01514 19.9394 6.36461 19.8445 6.52243 19.5674L15.9514 3.01369C16.1093 2.73667 16.0156 2.38245 15.7423 2.2225L15.4949 2.07769ZM11.7622 7.47344C12.0009 7.05431 11.8252 6.51621 11.3643 6.37368C10.6735 6.16004 9.98133 6.05514 9.29586 6.05514C6.86014 6.05514 4.33869 7.37979 2.09934 10.2018C1.88437 10.4727 1.88437 10.8676 2.09934 11.1386C3.56097 12.9806 5.14274 14.1848 6.74244 14.7992C7.15505 14.9577 7.6088 14.7652 7.82755 14.3812C8.13179 13.847 7.84887 13.1685 7.38056 12.7703C6.80087 12.2774 6.40952 11.5531 6.40952 10.6717C6.40952 8.97228 7.71207 7.59448 9.31857 7.59448C9.69687 7.59448 10.0583 7.67088 10.3899 7.80988C10.8754 8.01346 11.5016 7.93095 11.7622 7.47344ZM9.84841 10.8333C10.2221 10.1774 10.2007 9.21068 9.44914 9.13922C9.4063 9.13515 9.36275 9.13307 9.31857 9.13307C8.51464 9.13307 7.85714 9.82085 7.85714 10.6706C7.85714 10.8978 7.95573 11.1405 8.12323 11.3526C8.607 11.9652 9.46205 11.5116 9.84841 10.8333Z" fill="#3A68DF"/>
<path d="M10.5455 15.4606C10.2145 16.0418 10.6609 16.7369 11.3098 16.5748C13.9264 15.9212 16.4073 13.9956 18.4903 10.9211C18.5423 10.8443 18.5714 10.7648 18.5714 10.6702C18.5714 10.58 18.5464 10.5048 18.4968 10.4315C17.7394 9.31163 16.9292 8.34392 16.0788 7.53425C15.7372 7.20895 15.1891 7.30826 14.9556 7.71817C14.7764 8.03281 14.8467 8.42867 15.109 8.67836C15.5795 9.12643 16.0417 9.63375 16.4924 10.2018C16.7074 10.4727 16.7074 10.8676 16.4924 11.1385C14.8027 13.268 12.9524 14.5452 11.0994 15.0439C10.8674 15.1064 10.6644 15.2519 10.5455 15.4606Z" fill="#3A68DF"/>
</svg>
