<svg width="219" height="188" viewBox="0 0 219 188" fill="none" xmlns="http://www.w3.org/2000/svg">
<g clip-path="url(#clip0_213_4)">
<path d="M139.088 56.1717C139.791 56.2079 140.471 56.1728 141.126 56.0583L139.088 56.1717ZM176.712 156.375C175.861 156.989 175.2 157.467 174.749 157.815C174.527 157.987 174.32 158.153 174.158 158.305C174.078 158.379 173.977 158.478 173.883 158.596L173.882 158.597C173.823 158.671 173.609 158.937 173.531 159.332L176.712 156.375Z" fill="#FAFAFA"/>
<path d="M139.088 56.1717L139.081 56.1714C138.417 56.1338 137.72 56.0071 137.011 55.8039L136.672 55.7327C96.2914 50.101 50.2584 54.5222 25.8744 86.3176C20.854 92.8826 17.3708 100.24 16.069 108.101L16.0687 108.102C15.9487 108.823 15.8476 109.549 15.7808 110.251L15.5549 112.624L13.513 111.393C9.6713 109.077 6.91221 105.605 5.43543 101.305L5.43346 101.299C3.59388 95.8718 3.76836 89.2064 6.19137 81.8358L3.65429 81.1242C0.989899 89.108 0.902981 96.1449 2.8096 101.763C4.79672 107.562 8.90302 111.949 14.7817 114.429L15.637 114.789L15.6958 115.716C15.7464 116.513 15.8311 117.332 15.9343 118.147C16.4125 121.642 17.387 125.137 18.7805 128.558C20.5698 132.927 23.0542 137.132 26.0166 141L26.0175 141.002C29.1002 145.036 32.7041 148.708 36.6012 151.833C37.7906 152.783 39.0059 153.71 40.2851 154.603L40.2891 154.606C41.5258 155.476 42.8152 156.33 44.1396 157.154L44.1643 157.17L44.1884 157.186C45.2315 157.893 46.1823 158.818 46.4736 160.037L46.4754 160.044C46.7763 161.333 46.2363 162.654 45.4777 163.812L45.3911 163.964L39.3167 175.603H39.3737L38.4978 177.172L38.4795 177.207L38.477 177.209L38.1282 177.834C37.5194 178.925 37.0705 179.76 36.9047 180.61C36.759 181.358 36.8252 182.179 37.4865 183.236C37.9053 183.903 38.4868 184.411 39.2996 184.779L39.3103 184.784L39.321 184.789C40.0208 185.119 40.8581 185.32 41.8894 185.391H42.0343H42.0439L61.2975 185.515L61.7279 185.48C63.9932 185.069 65.4057 184.203 66.452 183.14C67.5591 182.015 68.3158 180.617 69.2037 178.959L69.2249 178.919L69.2483 178.881C69.3023 178.793 69.3414 178.721 69.4158 178.582C69.4838 178.455 69.5813 178.274 69.7466 177.976L69.7598 177.952L69.774 177.929C70.1947 177.231 70.5071 176.654 70.8109 176.092C70.8501 176.02 70.8893 175.948 70.9285 175.875L70.9309 175.871C70.9556 175.826 70.9804 175.78 71.0055 175.734C71.5465 174.742 72.1903 173.561 73.295 172.789C74.5406 171.919 76.109 171.709 78.1618 171.963L78.2633 171.976L78.3621 172.002C91.3588 175.452 102.567 176.826 113.007 176.52C123.564 176.215 133.332 174.184 143.362 170.759C144.419 170.394 145.342 170.85 145.918 171.291C146.503 171.739 147.019 172.376 147.459 173.011C148.316 174.246 149.154 175.875 149.859 177.243L149.937 177.395L149.94 177.4C150.548 178.59 151.074 179.608 151.566 180.363L151.663 180.5C152.995 182.127 154.437 183.303 155.98 184.073L155.981 184.074C157.599 184.884 159.323 185.224 161.164 185.114L161.209 185.112H161.253H176.209H176.26L176.311 185.115C179.367 185.323 181.229 184.808 182.269 183.909C182.895 183.366 183.201 182.781 183.284 182.112C183.372 181.405 183.227 180.466 182.674 179.232L182.64 179.163C182.639 179.16 182.638 179.157 182.636 179.154C182.499 178.884 182.289 178.473 182.027 177.96C181.244 176.429 179.994 173.986 178.839 171.648C177.909 169.785 176.892 167.66 175.877 165.477L175.871 165.462L175.864 165.448C175.823 165.353 175.736 165.172 175.597 164.882C175.474 164.624 175.31 164.282 175.101 163.839L176.457 163.198C175.446 161.069 174.931 159.982 175.002 159.624C175.038 159.438 175.871 158.832 177.592 157.589M139.088 56.1717C139.791 56.2079 140.471 56.1728 141.126 56.0583L139.088 56.1717ZM176.712 156.375L176.714 156.373L177.646 155.696L177.649 155.693C179.146 154.596 180.966 153.17 182.793 151.663C184.765 150.028 186.824 148.256 188.598 146.656C190.893 144.574 192.036 143.235 192.759 142.364C192.781 142.288 192.812 142.208 192.852 142.125C192.992 141.837 193.191 141.652 193.341 141.542C193.481 141.44 193.611 141.379 193.685 141.346C194.065 141.18 194.407 141.2 194.545 141.212C194.646 141.22 194.775 141.239 194.846 141.25C194.86 141.252 194.871 141.254 194.88 141.255C195.049 141.28 195.327 141.316 195.817 141.33C196.075 141.336 196.35 141.345 196.64 141.353C197.69 141.385 198.939 141.422 200.336 141.422H204.437L204.615 141.41C207.334 141.223 209.387 140.511 210.899 139.423C212.387 138.339 213.345 136.882 213.798 134.991L213.828 134.862L213.882 134.74C215.261 131.581 216.248 126.847 216.472 122.141C216.68 117.756 216.198 113.519 214.897 110.594C213.919 108.398 213.107 107.667 212.41 107.36C211.609 107.008 210.628 107.032 208.748 107.147L208.73 107.148L208.711 107.149C208.617 107.152 208.513 107.157 208.4 107.162C208.057 107.177 207.629 107.196 207.149 107.196H203.553L203.465 107.212H203.334C202.254 107.212 201.542 106.418 201.162 105.893L201.161 105.892L202.376 105.013C201.684 104.065 201.17 102.511 200.78 100.476M176.712 156.375C175.861 156.989 175.2 157.467 174.749 157.815C174.527 157.987 174.32 158.153 174.158 158.305C174.078 158.379 173.977 158.478 173.883 158.596L173.882 158.597C173.823 158.671 173.609 158.937 173.531 159.332L176.712 156.375ZM199.321 100.831L199.226 100.511C198.591 99.071 197.922 97.6457 197.219 96.2351L197.217 96.2298C196.558 94.8935 195.864 93.6019 195.134 92.3394L195.132 92.3347C192.641 87.9866 190.125 84.496 187.118 81.4587C184.084 78.3983 180.486 75.7799 175.821 73.2893L175.819 73.2882C174.634 72.653 173.427 71.979 172.566 71.3791L172.563 71.3768C172.298 71.1917 172.039 71.0068 171.837 70.8441C171.737 70.7642 171.618 70.663 171.508 70.5497L171.502 70.5443C171.441 70.481 171.211 70.2451 171.085 69.8838C170.725 68.8797 171.092 67.9665 171.509 67.3448C171.927 66.7212 172.545 66.1505 173.189 65.6409C174.485 64.617 176.299 63.5292 178.065 62.4698L178.08 62.4609C181.707 60.2852 185.124 58.1806 186.978 55.4476C187.749 54.3081 188.097 53.2302 188.18 52.2758V52.2675C188.285 51.132 188.018 50.1092 187.583 49.3009C187.568 49.2929 187.551 49.2839 187.53 49.2739C187.35 49.1861 187.054 49.079 186.619 48.9672C185.753 48.745 184.534 48.5541 183.039 48.4058C180.063 48.1105 176.183 48.0019 172.264 48.0788L172.261 48.0789C168.802 48.1407 165.261 48.2759 162.333 48.4719C159.333 48.6729 157.16 48.9283 156.304 49.1823L156.302 49.183C153.375 50.0472 150.584 51.5515 147.832 53.054L147.765 53.0905C146.573 53.7409 145.381 54.3918 144.294 54.9133C143.212 55.4328 142.106 55.888 141.128 56.058M187.654 49.344C187.654 49.344 187.651 49.3421 187.646 49.338M172.235 46.5834V46.5791" stroke="black" stroke-width="3"/>
<path d="M162.33 109.462L162.324 109.457C160.894 108.217 160.145 106.571 160.145 104.888C160.145 103.133 160.949 101.509 162.33 100.299L162.336 100.294C163.764 99.0304 165.728 98.2938 167.853 98.2938C170.056 98.2938 172.008 99.0711 173.393 100.284C174.774 101.494 175.578 103.117 175.578 104.873C175.578 106.629 174.774 108.252 173.393 109.462C172.008 110.675 170.056 111.452 167.853 111.452C165.668 111.452 163.716 110.676 162.33 109.462ZM69.8041 69.7983L69.8077 69.7972C80.5878 66.5328 91.5088 65.0148 102.523 65.0607C113.522 65.1222 124.604 66.7327 135.72 69.7622L135.721 69.7625C137.632 70.2818 138.377 71.895 137.929 73.1586C137.435 74.5521 135.578 75.5682 133.634 75.0398L133.632 75.0395C123.146 72.198 112.762 70.6534 102.486 70.606C92.2635 70.543 82.1093 71.9616 72.1172 74.9885C70.1758 75.5655 68.2912 74.6076 67.7545 73.2389C67.2589 71.9603 67.9521 70.354 69.8041 69.7983Z" fill="#FAFAFA" stroke="black" stroke-width="3"/>
<path d="M102.815 0.5C124.034 0.5 141.114 15.5468 141.114 33.9788C141.114 52.4108 124.034 67.4576 102.815 67.4576C81.5953 67.4576 64.5152 52.4108 64.5152 33.9788C64.5152 15.5468 81.5953 0.5 102.815 0.5ZM131.576 33.9788C131.576 19.9701 118.638 8.72881 102.815 8.72881C87.0088 8.72881 74.0533 19.9699 74.0533 33.9788C74.0533 47.9875 86.9908 59.2288 102.815 59.2288C118.638 59.2288 131.576 47.9875 131.576 33.9788Z" fill="#C1D3FF" stroke="black"/>
<path d="M102.815 9.72882C118.215 9.72882 130.576 20.6429 130.576 33.9788C130.576 47.3147 118.215 58.2288 102.815 58.2288C87.4143 58.2288 75.0533 47.3147 75.0533 33.9788C75.0533 20.6431 87.4319 9.72882 102.815 9.72882Z" fill="#3A68DF" stroke="black"/>
</g>
<defs>
<clipPath id="clip0_213_4">
<rect width="219" height="188" fill="white"/>
</clipPath>
</defs>
</svg>
