<svg width="71" height="70" viewBox="0 0 71 70" fill="none" xmlns="http://www.w3.org/2000/svg">
<path d="M25.333 41.114C24.3704 41.114 23.4584 40.962 22.597 40.658C21.7484 40.3413 21.0644 39.9233 20.545 39.404L21.21 38.321C21.6407 38.7643 22.217 39.1317 22.939 39.423C23.6737 39.7143 24.4717 39.86 25.333 39.86C26.435 39.86 27.2774 39.6193 27.86 39.138C28.4554 38.6567 28.753 38.0107 28.753 37.2C28.753 36.3893 28.4617 35.7433 27.879 35.262C27.309 34.7807 26.4034 34.54 25.162 34.54H24.212V33.533L28.316 28.384L28.506 28.916H21.096V27.7H29.646V28.669L25.542 33.818L24.877 33.381H25.39C26.986 33.381 28.1767 33.7357 28.962 34.445C29.76 35.1543 30.159 36.0663 30.159 37.181C30.159 37.9283 29.9817 38.5997 29.627 39.195C29.2724 39.7903 28.734 40.259 28.012 40.601C27.3027 40.943 26.4097 41.114 25.333 41.114ZM38.5396 41.114C37.3616 41.114 36.3673 40.8543 35.5566 40.335C34.746 39.803 34.1316 39.043 33.7136 38.055C33.2956 37.0543 33.0866 35.8573 33.0866 34.464C33.0866 32.9567 33.34 31.6963 33.8466 30.683C34.366 29.657 35.0816 28.8843 35.9936 28.365C36.9056 27.8457 37.9633 27.586 39.1666 27.586C39.762 27.586 40.332 27.643 40.8766 27.757C41.4213 27.871 41.9026 28.0547 42.3206 28.308L41.7696 29.41C41.4276 29.182 41.035 29.0237 40.5916 28.935C40.1483 28.8337 39.6796 28.783 39.1856 28.783C37.7543 28.783 36.608 29.239 35.7466 30.151C34.898 31.063 34.4736 32.4247 34.4736 34.236C34.4736 34.5147 34.4863 34.863 34.5116 35.281C34.5496 35.6863 34.6256 36.0917 34.7396 36.497L34.2646 36.136C34.404 35.4773 34.6763 34.92 35.0816 34.464C35.487 33.9953 35.9936 33.6407 36.6016 33.4C37.2096 33.1593 37.8746 33.039 38.5966 33.039C39.4833 33.039 40.2623 33.2037 40.9336 33.533C41.605 33.8623 42.1306 34.3247 42.5106 34.92C42.8906 35.5153 43.0806 36.2183 43.0806 37.029C43.0806 37.8523 42.8843 38.5743 42.4916 39.195C42.099 39.803 41.5543 40.278 40.8576 40.62C40.1736 40.9493 39.401 41.114 38.5396 41.114ZM38.4826 39.955C39.116 39.955 39.6733 39.841 40.1546 39.613C40.6486 39.3723 41.035 39.0367 41.3136 38.606C41.5923 38.1627 41.7316 37.6497 41.7316 37.067C41.7316 36.193 41.4276 35.4963 40.8196 34.977C40.2243 34.4577 39.4136 34.198 38.3876 34.198C37.7036 34.198 37.1083 34.3247 36.6016 34.578C36.095 34.8313 35.696 35.1797 35.4046 35.623C35.1133 36.0537 34.9676 36.5477 34.9676 37.105C34.9676 37.5863 35.1006 38.0487 35.3666 38.492C35.6326 38.9227 36.0253 39.2773 36.5446 39.556C37.0766 39.822 37.7226 39.955 38.4826 39.955ZM46.4288 41L52.1648 32.6H52.8728L47.1368 41H46.4288ZM47.0768 37.1C46.7008 37.1 46.3688 37.008 46.0808 36.824C45.7928 36.632 45.5688 36.364 45.4088 36.02C45.2568 35.676 45.1808 35.276 45.1808 34.82C45.1808 34.364 45.2568 33.964 45.4088 33.62C45.5688 33.276 45.7928 33.012 46.0808 32.828C46.3688 32.636 46.7008 32.54 47.0768 32.54C47.4528 32.54 47.7808 32.636 48.0608 32.828C48.3488 33.012 48.5728 33.276 48.7328 33.62C48.8928 33.964 48.9728 34.364 48.9728 34.82C48.9728 35.276 48.8928 35.676 48.7328 36.02C48.5728 36.364 48.3488 36.632 48.0608 36.824C47.7808 37.008 47.4528 37.1 47.0768 37.1ZM47.0768 36.56C47.4688 36.56 47.7808 36.408 48.0128 36.104C48.2528 35.792 48.3728 35.364 48.3728 34.82C48.3728 34.276 48.2528 33.852 48.0128 33.548C47.7808 33.236 47.4688 33.08 47.0768 33.08C46.6768 33.08 46.3608 33.236 46.1288 33.548C45.8968 33.852 45.7808 34.276 45.7808 34.82C45.7808 35.364 45.8968 35.792 46.1288 36.104C46.3608 36.408 46.6768 36.56 47.0768 36.56ZM52.2248 41.06C51.8568 41.06 51.5288 40.968 51.2408 40.784C50.9528 40.592 50.7288 40.324 50.5688 39.98C50.4088 39.636 50.3288 39.236 50.3288 38.78C50.3288 38.324 50.4088 37.924 50.5688 37.58C50.7288 37.236 50.9528 36.972 51.2408 36.788C51.5288 36.596 51.8568 36.5 52.2248 36.5C52.6088 36.5 52.9408 36.596 53.2208 36.788C53.5088 36.972 53.7288 37.236 53.8808 37.58C54.0408 37.924 54.1208 38.324 54.1208 38.78C54.1208 39.236 54.0408 39.636 53.8808 39.98C53.7288 40.324 53.5088 40.592 53.2208 40.784C52.9408 40.968 52.6088 41.06 52.2248 41.06ZM52.2248 40.52C52.6168 40.52 52.9288 40.368 53.1608 40.064C53.4008 39.752 53.5208 39.324 53.5208 38.78C53.5208 38.236 53.4008 37.812 53.1608 37.508C52.9288 37.196 52.6168 37.04 52.2248 37.04C51.8328 37.04 51.5168 37.196 51.2768 37.508C51.0448 37.812 50.9288 38.236 50.9288 38.78C50.9288 39.324 51.0448 39.752 51.2768 40.064C51.5168 40.368 51.8328 40.52 52.2248 40.52Z" fill="white"/>
<path opacity="0.15" fill-rule="evenodd" clip-rule="evenodd" d="M36 70C55.3299 70 71 54.33 71 35C71 15.67 55.3299 0 36 0C16.67 0 1 15.67 1 35C1 54.33 16.67 70 36 70ZM36 66.3478C53.3129 66.3478 67.3478 52.3129 67.3478 35C67.3478 17.6871 53.3129 3.65217 36 3.65217C18.6871 3.65217 4.65217 17.6871 4.65217 35C4.65217 52.3129 18.6871 66.3478 36 66.3478Z" fill="white"/>
<path d="M35.5 0C42.2385 7.92235e-08 48.8377 1.89083 54.5266 5.45151C60.2155 9.0122 64.759 14.0957 67.6262 20.1078C70.4933 26.12 71.5657 32.8125 70.7179 39.4033C69.8702 45.994 67.1373 52.2108 62.8388 57.327L60.0745 55.0695C63.9385 50.4706 66.395 44.8824 67.157 38.9581C67.9191 33.0337 66.9551 27.0179 64.3779 21.6136C61.8006 16.2093 57.7165 11.6399 52.6028 8.43919C47.4891 5.23853 41.5571 3.53889 35.5 3.53889V0Z" fill="white"/>
</svg>
