<svg width="127" height="107" viewBox="0 0 127 107" fill="none" xmlns="http://www.w3.org/2000/svg">
<path d="M38.39 105V104.49L41.3 101.64C41.5667 101.38 41.7667 101.153 41.9 100.96C42.0333 100.76 42.1233 100.573 42.17 100.4C42.2167 100.227 42.24 100.063 42.24 99.91C42.24 99.5033 42.1 99.1833 41.82 98.95C41.5467 98.7167 41.14 98.6 40.6 98.6C40.1867 98.6 39.82 98.6633 39.5 98.79C39.1867 98.9167 38.9167 99.1133 38.69 99.38L38.18 98.94C38.4533 98.62 38.8033 98.3733 39.23 98.2C39.6567 98.0267 40.1333 97.94 40.66 97.94C41.1333 97.94 41.5433 98.0167 41.89 98.17C42.2367 98.3167 42.5033 98.5333 42.69 98.82C42.8833 99.1067 42.98 99.4433 42.98 99.83C42.98 100.057 42.9467 100.28 42.88 100.5C42.82 100.72 42.7067 100.953 42.54 101.2C42.38 101.44 42.1433 101.713 41.83 102.02L39.16 104.64L38.96 104.36H43.3V105H38.39ZM46.9741 105.06C46.4341 105.06 45.9541 104.92 45.5341 104.64C45.1141 104.353 44.7841 103.947 44.5441 103.42C44.3041 102.887 44.1841 102.247 44.1841 101.5C44.1841 100.753 44.3041 100.117 44.5441 99.59C44.7841 99.0567 45.1141 98.65 45.5341 98.37C45.9541 98.0833 46.4341 97.94 46.9741 97.94C47.5141 97.94 47.9941 98.0833 48.4141 98.37C48.8341 98.65 49.1641 99.0567 49.4041 99.59C49.6507 100.117 49.7741 100.753 49.7741 101.5C49.7741 102.247 49.6507 102.887 49.4041 103.42C49.1641 103.947 48.8341 104.353 48.4141 104.64C47.9941 104.92 47.5141 105.06 46.9741 105.06ZM46.9741 104.4C47.3874 104.4 47.7474 104.29 48.0541 104.07C48.3607 103.843 48.6007 103.517 48.7741 103.09C48.9474 102.657 49.0341 102.127 49.0341 101.5C49.0341 100.873 48.9474 100.347 48.7741 99.92C48.6007 99.4867 48.3607 99.16 48.0541 98.94C47.7474 98.7133 47.3874 98.6 46.9741 98.6C46.5741 98.6 46.2174 98.7133 45.9041 98.94C45.5907 99.16 45.3474 99.4867 45.1741 99.92C45.0007 100.347 44.9141 100.873 44.9141 101.5C44.9141 102.127 45.0007 102.657 45.1741 103.09C45.3474 103.517 45.5907 103.843 45.9041 104.07C46.2174 104.29 46.5741 104.4 46.9741 104.4ZM51.4532 105L55.2772 99.4H55.7492L51.9252 105H51.4532ZM51.8852 102.4C51.6345 102.4 51.4132 102.339 51.2212 102.216C51.0292 102.088 50.8798 101.909 50.7732 101.68C50.6718 101.451 50.6212 101.184 50.6212 100.88C50.6212 100.576 50.6718 100.309 50.7732 100.08C50.8798 99.8507 51.0292 99.6747 51.2212 99.552C51.4132 99.424 51.6345 99.36 51.8852 99.36C52.1358 99.36 52.3545 99.424 52.5412 99.552C52.7332 99.6747 52.8825 99.8507 52.9892 100.08C53.0958 100.309 53.1492 100.576 53.1492 100.88C53.1492 101.184 53.0958 101.451 52.9892 101.68C52.8825 101.909 52.7332 102.088 52.5412 102.216C52.3545 102.339 52.1358 102.4 51.8852 102.4ZM51.8852 102.04C52.1465 102.04 52.3545 101.939 52.5092 101.736C52.6692 101.528 52.7492 101.243 52.7492 100.88C52.7492 100.517 52.6692 100.235 52.5092 100.032C52.3545 99.824 52.1465 99.72 51.8852 99.72C51.6185 99.72 51.4078 99.824 51.2532 100.032C51.0985 100.235 51.0212 100.517 51.0212 100.88C51.0212 101.243 51.0985 101.528 51.2532 101.736C51.4078 101.939 51.6185 102.04 51.8852 102.04ZM55.3172 105.04C55.0718 105.04 54.8532 104.979 54.6612 104.856C54.4692 104.728 54.3198 104.549 54.2132 104.32C54.1065 104.091 54.0532 103.824 54.0532 103.52C54.0532 103.216 54.1065 102.949 54.2132 102.72C54.3198 102.491 54.4692 102.315 54.6612 102.192C54.8532 102.064 55.0718 102 55.3172 102C55.5732 102 55.7945 102.064 55.9812 102.192C56.1732 102.315 56.3198 102.491 56.4212 102.72C56.5278 102.949 56.5812 103.216 56.5812 103.52C56.5812 103.824 56.5278 104.091 56.4212 104.32C56.3198 104.549 56.1732 104.728 55.9812 104.856C55.7945 104.979 55.5732 105.04 55.3172 105.04ZM55.3172 104.68C55.5785 104.68 55.7865 104.579 55.9412 104.376C56.1012 104.168 56.1812 103.883 56.1812 103.52C56.1812 103.157 56.1012 102.875 55.9412 102.672C55.7865 102.464 55.5785 102.36 55.3172 102.36C55.0558 102.36 54.8452 102.464 54.6852 102.672C54.5305 102.875 54.4532 103.157 54.4532 103.52C54.4532 103.883 54.5305 104.168 54.6852 104.376C54.8452 104.579 55.0558 104.68 55.3172 104.68Z" fill="#F49302"/>
<path d="M0.39 41V40.49L3.3 37.64C3.56667 37.38 3.76667 37.1533 3.9 36.96C4.03333 36.76 4.12333 36.5733 4.17 36.4C4.21667 36.2267 4.24 36.0633 4.24 35.91C4.24 35.5033 4.1 35.1833 3.82 34.95C3.54667 34.7167 3.14 34.6 2.6 34.6C2.18667 34.6 1.82 34.6633 1.5 34.79C1.18667 34.9167 0.916667 35.1133 0.69 35.38L0.18 34.94C0.453333 34.62 0.803333 34.3733 1.23 34.2C1.65667 34.0267 2.13333 33.94 2.66 33.94C3.13333 33.94 3.54333 34.0167 3.89 34.17C4.23667 34.3167 4.50333 34.5333 4.69 34.82C4.88333 35.1067 4.98 35.4433 4.98 35.83C4.98 36.0567 4.94667 36.28 4.88 36.5C4.82 36.72 4.70667 36.9533 4.54 37.2C4.38 37.44 4.14333 37.7133 3.83 38.02L1.16 40.64L0.96 40.36H5.3V41H0.39ZM8.41359 41.06C7.91359 41.06 7.43693 40.98 6.98359 40.82C6.53026 40.6533 6.17026 40.4333 5.90359 40.16L6.25359 39.59C6.47359 39.8233 6.77359 40.0167 7.15359 40.17C7.54026 40.3233 7.95693 40.4 8.40359 40.4C8.99693 40.4 9.44693 40.27 9.75359 40.01C10.0669 39.7433 10.2236 39.3967 10.2236 38.97C10.2236 38.67 10.1503 38.4133 10.0036 38.2C9.86359 37.98 9.62359 37.81 9.28359 37.69C8.94359 37.57 8.47693 37.51 7.88359 37.51H6.39359L6.75359 34H10.5836V34.64H7.04359L7.41359 34.29L7.10359 37.23L6.73359 36.87H8.04359C8.75026 36.87 9.31693 36.9567 9.74359 37.13C10.1703 37.3033 10.4769 37.5467 10.6636 37.86C10.8569 38.1667 10.9536 38.5267 10.9536 38.94C10.9536 39.3333 10.8603 39.6933 10.6736 40.02C10.4869 40.34 10.2069 40.5933 9.83359 40.78C9.46026 40.9667 8.98693 41.06 8.41359 41.06ZM12.5157 41L16.3397 35.4H16.8117L12.9877 41H12.5157ZM12.9477 38.4C12.697 38.4 12.4757 38.3387 12.2837 38.216C12.0917 38.088 11.9423 37.9093 11.8357 37.68C11.7343 37.4507 11.6837 37.184 11.6837 36.88C11.6837 36.576 11.7343 36.3093 11.8357 36.08C11.9423 35.8507 12.0917 35.6747 12.2837 35.552C12.4757 35.424 12.697 35.36 12.9477 35.36C13.1983 35.36 13.417 35.424 13.6037 35.552C13.7957 35.6747 13.945 35.8507 14.0517 36.08C14.1583 36.3093 14.2117 36.576 14.2117 36.88C14.2117 37.184 14.1583 37.4507 14.0517 37.68C13.945 37.9093 13.7957 38.088 13.6037 38.216C13.417 38.3387 13.1983 38.4 12.9477 38.4ZM12.9477 38.04C13.209 38.04 13.417 37.9387 13.5717 37.736C13.7317 37.528 13.8117 37.2427 13.8117 36.88C13.8117 36.5173 13.7317 36.2347 13.5717 36.032C13.417 35.824 13.209 35.72 12.9477 35.72C12.681 35.72 12.4703 35.824 12.3157 36.032C12.161 36.2347 12.0837 36.5173 12.0837 36.88C12.0837 37.2427 12.161 37.528 12.3157 37.736C12.4703 37.9387 12.681 38.04 12.9477 38.04ZM16.3797 41.04C16.1343 41.04 15.9157 40.9787 15.7237 40.856C15.5317 40.728 15.3823 40.5493 15.2757 40.32C15.169 40.0907 15.1157 39.824 15.1157 39.52C15.1157 39.216 15.169 38.9493 15.2757 38.72C15.3823 38.4907 15.5317 38.3147 15.7237 38.192C15.9157 38.064 16.1343 38 16.3797 38C16.6357 38 16.857 38.064 17.0437 38.192C17.2357 38.3147 17.3823 38.4907 17.4837 38.72C17.5903 38.9493 17.6437 39.216 17.6437 39.52C17.6437 39.824 17.5903 40.0907 17.4837 40.32C17.3823 40.5493 17.2357 40.728 17.0437 40.856C16.857 40.9787 16.6357 41.04 16.3797 41.04ZM16.3797 40.68C16.641 40.68 16.849 40.5787 17.0037 40.376C17.1637 40.168 17.2437 39.8827 17.2437 39.52C17.2437 39.1573 17.1637 38.8747 17.0037 38.672C16.849 38.464 16.641 38.36 16.3797 38.36C16.1183 38.36 15.9077 38.464 15.7477 38.672C15.593 38.8747 15.5157 39.1573 15.5157 39.52C15.5157 39.8827 15.593 40.168 15.7477 40.376C15.9077 40.5787 16.1183 40.68 16.3797 40.68Z" fill="#00B3FF"/>
<path d="M89.74 101V94.3L90.06 94.64H88.09V94H90.46V101H89.74ZM94.9233 101.06C94.3833 101.06 93.9033 100.92 93.4833 100.64C93.0633 100.353 92.7333 99.9467 92.4933 99.42C92.2533 98.8867 92.1333 98.2467 92.1333 97.5C92.1333 96.7533 92.2533 96.1167 92.4933 95.59C92.7333 95.0567 93.0633 94.65 93.4833 94.37C93.9033 94.0833 94.3833 93.94 94.9233 93.94C95.4633 93.94 95.9433 94.0833 96.3633 94.37C96.7833 94.65 97.1133 95.0567 97.3533 95.59C97.5999 96.1167 97.7233 96.7533 97.7233 97.5C97.7233 98.2467 97.5999 98.8867 97.3533 99.42C97.1133 99.9467 96.7833 100.353 96.3633 100.64C95.9433 100.92 95.4633 101.06 94.9233 101.06ZM94.9233 100.4C95.3366 100.4 95.6966 100.29 96.0033 100.07C96.3099 99.8433 96.5499 99.5167 96.7233 99.09C96.8966 98.6567 96.9833 98.1267 96.9833 97.5C96.9833 96.8733 96.8966 96.3467 96.7233 95.92C96.5499 95.4867 96.3099 95.16 96.0033 94.94C95.6966 94.7133 95.3366 94.6 94.9233 94.6C94.5233 94.6 94.1666 94.7133 93.8533 94.94C93.5399 95.16 93.2966 95.4867 93.1233 95.92C92.9499 96.3467 92.8633 96.8733 92.8633 97.5C92.8633 98.1267 92.9499 98.6567 93.1233 99.09C93.2966 99.5167 93.5399 99.8433 93.8533 100.07C94.1666 100.29 94.5233 100.4 94.9233 100.4ZM99.4024 101L103.226 95.4H103.698L99.8744 101H99.4024ZM99.8344 98.4C99.5837 98.4 99.3624 98.3387 99.1704 98.216C98.9784 98.088 98.829 97.9093 98.7224 97.68C98.621 97.4507 98.5704 97.184 98.5704 96.88C98.5704 96.576 98.621 96.3093 98.7224 96.08C98.829 95.8507 98.9784 95.6747 99.1704 95.552C99.3624 95.424 99.5837 95.36 99.8344 95.36C100.085 95.36 100.304 95.424 100.49 95.552C100.682 95.6747 100.832 95.8507 100.938 96.08C101.045 96.3093 101.098 96.576 101.098 96.88C101.098 97.184 101.045 97.4507 100.938 97.68C100.832 97.9093 100.682 98.088 100.49 98.216C100.304 98.3387 100.085 98.4 99.8344 98.4ZM99.8344 98.04C100.096 98.04 100.304 97.9387 100.458 97.736C100.618 97.528 100.698 97.2427 100.698 96.88C100.698 96.5173 100.618 96.2347 100.458 96.032C100.304 95.824 100.096 95.72 99.8344 95.72C99.5677 95.72 99.357 95.824 99.2024 96.032C99.0477 96.2347 98.9704 96.5173 98.9704 96.88C98.9704 97.2427 99.0477 97.528 99.2024 97.736C99.357 97.9387 99.5677 98.04 99.8344 98.04ZM103.266 101.04C103.021 101.04 102.802 100.979 102.61 100.856C102.418 100.728 102.269 100.549 102.162 100.32C102.056 100.091 102.002 99.824 102.002 99.52C102.002 99.216 102.056 98.9493 102.162 98.72C102.269 98.4907 102.418 98.3147 102.61 98.192C102.802 98.064 103.021 98 103.266 98C103.522 98 103.744 98.064 103.93 98.192C104.122 98.3147 104.269 98.4907 104.37 98.72C104.477 98.9493 104.53 99.216 104.53 99.52C104.53 99.824 104.477 100.091 104.37 100.32C104.269 100.549 104.122 100.728 103.93 100.856C103.744 100.979 103.522 101.04 103.266 101.04ZM103.266 100.68C103.528 100.68 103.736 100.579 103.89 100.376C104.05 100.168 104.13 99.8827 104.13 99.52C104.13 99.1573 104.05 98.8747 103.89 98.672C103.736 98.464 103.528 98.36 103.266 98.36C103.005 98.36 102.794 98.464 102.634 98.672C102.48 98.8747 102.402 99.1573 102.402 99.52C102.402 99.8827 102.48 100.168 102.634 100.376C102.794 100.579 103.005 100.68 103.266 100.68Z" fill="#AFAFAF"/>
<path d="M112.74 71V64.3L113.06 64.64H111.09V64H113.46V71H112.74ZM117.343 71.06C116.843 71.06 116.367 70.98 115.913 70.82C115.46 70.6533 115.1 70.4333 114.833 70.16L115.183 69.59C115.403 69.8233 115.703 70.0167 116.083 70.17C116.47 70.3233 116.887 70.4 117.333 70.4C117.927 70.4 118.377 70.27 118.683 70.01C118.997 69.7433 119.153 69.3967 119.153 68.97C119.153 68.67 119.08 68.4133 118.933 68.2C118.793 67.98 118.553 67.81 118.213 67.69C117.873 67.57 117.407 67.51 116.813 67.51H115.323L115.683 64H119.513V64.64H115.973L116.343 64.29L116.033 67.23L115.663 66.87H116.973C117.68 66.87 118.247 66.9567 118.673 67.13C119.1 67.3033 119.407 67.5467 119.593 67.86C119.787 68.1667 119.883 68.5267 119.883 68.94C119.883 69.3333 119.79 69.6933 119.603 70.02C119.417 70.34 119.137 70.5933 118.763 70.78C118.39 70.9667 117.917 71.06 117.343 71.06ZM121.445 71L125.269 65.4H125.741L121.917 71H121.445ZM121.877 68.4C121.627 68.4 121.405 68.3387 121.213 68.216C121.021 68.088 120.872 67.9093 120.765 67.68C120.664 67.4507 120.613 67.184 120.613 66.88C120.613 66.576 120.664 66.3093 120.765 66.08C120.872 65.8507 121.021 65.6747 121.213 65.552C121.405 65.424 121.627 65.36 121.877 65.36C122.128 65.36 122.347 65.424 122.533 65.552C122.725 65.6747 122.875 65.8507 122.981 66.08C123.088 66.3093 123.141 66.576 123.141 66.88C123.141 67.184 123.088 67.4507 122.981 67.68C122.875 67.9093 122.725 68.088 122.533 68.216C122.347 68.3387 122.128 68.4 121.877 68.4ZM121.877 68.04C122.139 68.04 122.347 67.9387 122.501 67.736C122.661 67.528 122.741 67.2427 122.741 66.88C122.741 66.5173 122.661 66.2347 122.501 66.032C122.347 65.824 122.139 65.72 121.877 65.72C121.611 65.72 121.4 65.824 121.245 66.032C121.091 66.2347 121.013 66.5173 121.013 66.88C121.013 67.2427 121.091 67.528 121.245 67.736C121.4 67.9387 121.611 68.04 121.877 68.04ZM125.309 71.04C125.064 71.04 124.845 70.9787 124.653 70.856C124.461 70.728 124.312 70.5493 124.205 70.32C124.099 70.0907 124.045 69.824 124.045 69.52C124.045 69.216 124.099 68.9493 124.205 68.72C124.312 68.4907 124.461 68.3147 124.653 68.192C124.845 68.064 125.064 68 125.309 68C125.565 68 125.787 68.064 125.973 68.192C126.165 68.3147 126.312 68.4907 126.413 68.72C126.52 68.9493 126.573 69.216 126.573 69.52C126.573 69.824 126.52 70.0907 126.413 70.32C126.312 70.5493 126.165 70.728 125.973 70.856C125.787 70.9787 125.565 71.04 125.309 71.04ZM125.309 70.68C125.571 70.68 125.779 70.5787 125.933 70.376C126.093 70.168 126.173 69.8827 126.173 69.52C126.173 69.1573 126.093 68.8747 125.933 68.672C125.779 68.464 125.571 68.36 125.309 68.36C125.048 68.36 124.837 68.464 124.677 68.672C124.523 68.8747 124.445 69.1573 124.445 69.52C124.445 69.8827 124.523 70.168 124.677 70.376C124.837 70.5787 125.048 70.68 125.309 70.68Z" fill="#DB0000"/>
<path d="M97.61 10.06C97.1033 10.06 96.6233 9.98 96.17 9.82C95.7233 9.65333 95.3633 9.43333 95.09 9.16L95.44 8.59C95.6667 8.82333 95.97 9.01667 96.35 9.17C96.7367 9.32333 97.1567 9.4 97.61 9.4C98.19 9.4 98.6333 9.27333 98.94 9.02C99.2533 8.76667 99.41 8.42667 99.41 8C99.41 7.57333 99.2567 7.23333 98.95 6.98C98.65 6.72667 98.1733 6.6 97.52 6.6H97.02V6.07L99.18 3.36L99.28 3.64H95.38V3H99.88V3.51L97.72 6.22L97.37 5.99H97.64C98.48 5.99 99.1067 6.17667 99.52 6.55C99.94 6.92333 100.15 7.40333 100.15 7.99C100.15 8.38333 100.057 8.73667 99.87 9.05C99.6833 9.36333 99.4 9.61 99.02 9.79C98.6467 9.97 98.1767 10.06 97.61 10.06ZM103.955 10.06C103.415 10.06 102.935 9.92 102.515 9.64C102.095 9.35333 101.765 8.94667 101.525 8.42C101.285 7.88667 101.165 7.24667 101.165 6.5C101.165 5.75333 101.285 5.11667 101.525 4.59C101.765 4.05667 102.095 3.65 102.515 3.37C102.935 3.08333 103.415 2.94 103.955 2.94C104.495 2.94 104.975 3.08333 105.395 3.37C105.815 3.65 106.145 4.05667 106.385 4.59C106.631 5.11667 106.755 5.75333 106.755 6.5C106.755 7.24667 106.631 7.88667 106.385 8.42C106.145 8.94667 105.815 9.35333 105.395 9.64C104.975 9.92 104.495 10.06 103.955 10.06ZM103.955 9.4C104.368 9.4 104.728 9.29 105.035 9.07C105.341 8.84333 105.581 8.51667 105.755 8.09C105.928 7.65667 106.015 7.12667 106.015 6.5C106.015 5.87333 105.928 5.34667 105.755 4.92C105.581 4.48667 105.341 4.16 105.035 3.94C104.728 3.71333 104.368 3.6 103.955 3.6C103.555 3.6 103.198 3.71333 102.885 3.94C102.571 4.16 102.328 4.48667 102.155 4.92C101.981 5.34667 101.895 5.87333 101.895 6.5C101.895 7.12667 101.981 7.65667 102.155 8.09C102.328 8.51667 102.571 8.84333 102.885 9.07C103.198 9.29 103.555 9.4 103.955 9.4ZM108.434 10L112.258 4.4H112.73L108.906 10H108.434ZM108.866 7.4C108.615 7.4 108.394 7.33867 108.202 7.216C108.01 7.088 107.86 6.90933 107.754 6.68C107.652 6.45067 107.602 6.184 107.602 5.88C107.602 5.576 107.652 5.30933 107.754 5.08C107.86 4.85067 108.01 4.67467 108.202 4.552C108.394 4.424 108.615 4.36 108.866 4.36C109.116 4.36 109.335 4.424 109.522 4.552C109.714 4.67467 109.863 4.85067 109.97 5.08C110.076 5.30933 110.13 5.576 110.13 5.88C110.13 6.184 110.076 6.45067 109.97 6.68C109.863 6.90933 109.714 7.088 109.522 7.216C109.335 7.33867 109.116 7.4 108.866 7.4ZM108.866 7.04C109.127 7.04 109.335 6.93867 109.49 6.736C109.65 6.528 109.73 6.24267 109.73 5.88C109.73 5.51733 109.65 5.23467 109.49 5.032C109.335 4.824 109.127 4.72 108.866 4.72C108.599 4.72 108.388 4.824 108.234 5.032C108.079 5.23467 108.002 5.51733 108.002 5.88C108.002 6.24267 108.079 6.528 108.234 6.736C108.388 6.93867 108.599 7.04 108.866 7.04ZM112.298 10.04C112.052 10.04 111.834 9.97867 111.642 9.856C111.45 9.728 111.3 9.54933 111.194 9.32C111.087 9.09067 111.034 8.824 111.034 8.52C111.034 8.216 111.087 7.94933 111.194 7.72C111.3 7.49067 111.45 7.31467 111.642 7.192C111.834 7.064 112.052 7 112.298 7C112.554 7 112.775 7.064 112.962 7.192C113.154 7.31467 113.3 7.49067 113.402 7.72C113.508 7.94933 113.562 8.216 113.562 8.52C113.562 8.824 113.508 9.09067 113.402 9.32C113.3 9.54933 113.154 9.728 112.962 9.856C112.775 9.97867 112.554 10.04 112.298 10.04ZM112.298 9.68C112.559 9.68 112.767 9.57867 112.922 9.376C113.082 9.168 113.162 8.88267 113.162 8.52C113.162 8.15733 113.082 7.87467 112.922 7.672C112.767 7.464 112.559 7.36 112.298 7.36C112.036 7.36 111.826 7.464 111.666 7.672C111.511 7.87467 111.434 8.15733 111.434 8.52C111.434 8.88267 111.511 9.168 111.666 9.376C111.826 9.57867 112.036 9.68 112.298 9.68Z" fill="#76D9DF"/>
<path d="M45.5999 9.88971C51.9919 6.63874 59.0683 4.96249 66.2394 5.00064C73.4105 5.03878 80.4687 6.79023 86.8257 10.109C93.1827 13.4278 98.6545 18.2178 102.785 24.0799C106.916 29.942 109.586 36.7064 110.572 43.8095L97.2005 45.6666C96.5099 40.6945 94.6411 35.9594 91.7496 31.8559C88.8582 27.7525 85.0279 24.3995 80.578 22.0763C76.1281 19.7532 71.1873 18.5271 66.1676 18.5004C61.1478 18.4737 56.1943 19.6471 51.7199 21.9228L45.5999 9.88971Z" fill="#76D9DF"/>
<path d="M45.6038 9.88772C39.7788 12.8496 34.6688 17.0446 30.629 22.1811C26.5892 27.3176 23.7166 33.2723 22.2109 39.6313C20.7051 45.9902 20.6024 52.6008 21.9099 59.0035C23.2174 65.4061 25.9036 71.4472 29.7819 76.7067L40.6473 68.6947C37.9325 65.013 36.0521 60.7843 35.1369 56.3024C34.2217 51.8206 34.2936 47.1932 35.3476 42.7419C36.4016 38.2906 38.4124 34.1223 41.2403 30.5268C44.0681 26.9312 47.6452 23.9947 51.7227 21.9214L45.6038 9.88772Z" fill="#00B3FF"/>
<path d="M97.8198 81.8198C93.0579 86.5817 87.2879 90.2141 80.9352 92.4492L76.4547 79.7145C80.9015 78.1499 84.9405 75.6072 88.2739 72.2739L97.8198 81.8198Z" fill="#AFAFAF"/>
<path d="M97.8198 81.8198C102.744 76.8959 106.458 70.8964 108.67 64.2935C110.881 57.6907 111.531 50.6646 110.566 43.7682L97.1965 45.6377C97.8715 50.4652 97.417 55.3835 95.8687 60.0055C94.3204 64.6275 91.7206 68.8271 88.2739 72.2739L97.8198 81.8198Z" fill="#DB0000"/>
<path d="M81.0044 92.4248C71.476 95.7948 61.0906 95.859 51.5212 92.6071C41.9519 89.3552 33.7558 82.9767 28.2535 74.499L39.5774 67.1493C43.4291 73.0837 49.1663 77.5487 55.8649 79.825C62.5634 82.1013 69.8332 82.0563 76.5031 79.6974L81.0044 92.4248Z" fill="#F49302"/>
</svg>
