<svg width="32" height="34" viewBox="0 0 32 34" fill="none" xmlns="http://www.w3.org/2000/svg">
<path fill-rule="evenodd" clip-rule="evenodd" d="M1 12.4105L16 1.57507L31 12.4105V29.4376C31 31.1474 29.5076 32.5335 27.6667 32.5335H4.33333C2.49238 32.5335 1 31.1474 1 29.4376V12.4105Z" fill="white" stroke="#3A68DF" stroke-width="2" stroke-linecap="round" stroke-linejoin="round"/>
<path fill-rule="evenodd" clip-rule="evenodd" d="M11.0005 32.5334V17.0542H21.0005V32.5334" fill="white"/>
<path d="M11.0005 32.5334V17.0542H21.0005V32.5334" stroke="#3A68DF" stroke-width="2" stroke-linecap="round" stroke-linejoin="round"/>
<path fill-rule="evenodd" clip-rule="evenodd" d="M1 12.4105L16 1.57507L31 12.4105V29.4376C31 31.1474 29.5076 32.5335 27.6667 32.5335H4.33333C2.49238 32.5335 1 31.1474 1 29.4376V12.4105Z" fill="white" stroke="#3A68DF" stroke-width="2" stroke-linecap="round" stroke-linejoin="round"/>
<path fill-rule="evenodd" clip-rule="evenodd" d="M11.0005 32.5334V17.0542H21.0005V32.5334" fill="white"/>
<path d="M11.0005 32.5334V17.0542H21.0005V32.5334" stroke="#3A68DF" stroke-width="2" stroke-linecap="round" stroke-linejoin="round"/>
</svg>
