<svg width="25" height="20" viewBox="0 0 25 20" fill="none" xmlns="http://www.w3.org/2000/svg">
<path fill-rule="evenodd" clip-rule="evenodd" d="M3.06435 2.68876C2.2737 3.37133 1.74419 4.47886 1.74419 6.21622V13.7838C1.74419 15.5211 2.2737 16.6286 3.06435 17.3112C3.86669 18.0039 5.07555 18.3784 6.68605 18.3784H18.314C19.9244 18.3784 21.1333 18.0039 21.9357 17.3112C22.7263 16.6286 23.2558 15.5211 23.2558 13.7838V6.21622C23.2558 4.47886 22.7263 3.37133 21.9357 2.68876C21.1333 1.99608 19.9244 1.62162 18.314 1.62162H6.68605C5.07555 1.62162 3.86669 1.99608 3.06435 2.68876ZM1.87751 1.50043C3.11006 0.436357 4.80817 0 6.68605 0H18.314C20.1919 0 21.89 0.436357 23.1224 1.50043C24.3667 2.57462 25 4.16978 25 6.21622V13.7838C25 15.8303 24.3667 17.4254 23.1224 18.4996C21.89 19.5637 20.1919 20 18.314 20H6.68605C4.80817 20 3.11006 19.5637 1.87751 18.4996C0.633279 17.4254 0 15.8303 0 13.7838V6.21622C0 4.16978 0.633279 2.57462 1.87751 1.50043Z" fill="#3A68DF"/>
<path fill-rule="evenodd" clip-rule="evenodd" d="M21.062 4.93001C21.3565 5.28435 21.2863 5.79356 20.9052 6.06735L14.4551 10.7012C13.3035 11.5284 11.6964 11.5284 10.5448 10.7012L4.09471 6.06735C3.71358 5.79356 3.64336 5.28435 3.93786 4.93001C4.23236 4.57566 4.78004 4.51038 5.16117 4.78418L11.6112 9.41795C12.1347 9.79405 12.8652 9.79405 13.3886 9.41795L19.8387 4.78418C20.2199 4.51038 20.7676 4.57566 21.062 4.93001Z" fill="#3A68DF"/>
</svg>
