<svg width="44" height="16" viewBox="0 0 44 16" fill="none" xmlns="http://www.w3.org/2000/svg">
<path d="M2 1.30795V1.73348C2.02615 2.44569 2.6145 3.01456 3.34667 3.04143H3.5733C4.30547 3.01456 4.89382 2.44569 4.91997 1.73348V1.30795C4.89382 0.595745 4.30547 0.0268757 3.5733 0H3.34667C2.6145 0.0268757 2.02615 0.595745 2 1.30795ZM21.1236 6.34714V12.1747C21.1236 13.187 21.5028 13.6439 22.7056 13.6439C23.2112 13.6439 23.7036 13.5006 24 13.3931V15.7402C23.4945 15.9149 22.7274 16 22.0955 16C19.5677 16 18.3736 14.701 18.3736 12.4524V0.694289H21.1236V4.43449H24V6.34714H21.1236Z" fill="white"/>
<path fill-rule="evenodd" clip-rule="evenodd" d="M25 9.84662C25 6.36842 27.1677 4 30.6379 4C34.3444 4 36.182 6.73383 35.9858 10.6992H27.8903C28.0375 12.7338 28.9786 13.7669 30.6512 13.7669C32.0652 13.7669 32.8145 13.0767 33.1401 12.1023H35.8921C35.3569 14.4932 33.488 16 30.6379 16C27.1231 16 25 13.6541 25 10.1308V9.84662ZM30.6156 6.28271C29.0723 6.28271 28.149 7.11729 27.8903 8.77744L33.1579 8.73233C33.0063 7.18496 32.1811 6.28271 30.6156 6.28271Z" fill="white"/>
<path d="M12.7512 4.00465C10.9648 4.00465 9.8648 5.11963 9.3104 6.21603L9.1828 4.36237H6.534V16H9.3104V9.45877C9.3104 7.52613 10.2784 6.34611 11.7436 6.34611C13.2088 6.34611 13.75 7.36818 13.75 9.14286V16H16.5264V8.51103C16.5352 5.91405 15.4704 4.00465 12.7512 4.00465ZM40.1148 6.21138C40.8188 4.75261 42.2576 4 43.34 4C43.5336 4 43.8372 4.02787 44 4.06504V6.34146C43.7316 6.31359 43.4632 6.29965 43.1948 6.29501C41.2192 6.29501 40.1148 7.54936 40.1148 9.67712V15.9907H37.3384V4.36237H40.0312L40.1148 6.21138ZM0 4.36237V6.34611H1.8788V16H4.6552V4.36237H0Z" fill="white"/>
</svg>
