<svg width="32" height="33" viewBox="0 0 32 33" fill="none" xmlns="http://www.w3.org/2000/svg">
<path d="M23.5 4.1C25.2438 4.1 26.1156 4.1 26.8309 4.25844C28.7719 4.68841 30.2882 5.94182 30.8084 7.54649C31 8.13781 31 8.85855 31 10.3V24.56C31 27.1643 31 28.4663 30.3869 29.4611C29.8476 30.3361 28.9872 31.0474 27.9287 31.4932C26.7254 32 25.1504 32 22 32H10C6.8497 32 5.27455 32 4.07131 31.4932C3.01289 31.0474 2.15238 30.3361 1.61309 29.4611C1 28.4663 1 27.1643 1 24.56V10.3C1 8.85855 1 8.13781 1.19166 7.54649C1.71179 5.94182 3.22801 4.68841 5.16914 4.25844C5.88445 4.1 6.75631 4.1 8.5 4.1M10.375 21.15L14.125 24.25L22.5625 17.275M11.5 7.2H20.5C21.5502 7.2 22.0752 7.2 22.4763 7.03107C22.8291 6.88245 23.1158 6.64533 23.2956 6.35368C23.5 6.02212 23.5 5.58808 23.5 4.72V3.48C23.5 2.61192 23.5 2.17788 23.2956 1.84632C23.1158 1.55467 22.8291 1.31755 22.4763 1.16893C22.0752 1 21.5502 1 20.5 1H11.5C10.4499 1 9.92485 1 9.52377 1.16893C9.17097 1.31755 8.88413 1.55467 8.70436 1.84632C8.5 2.17788 8.5 2.61192 8.5 3.48V4.72C8.5 5.58808 8.5 6.02212 8.70436 6.35368C8.88413 6.64533 9.17097 6.88245 9.52377 7.03107C9.92485 7.2 10.4499 7.2 11.5 7.2Z" stroke="#9DB2CE" stroke-width="2" stroke-linecap="round" stroke-linejoin="round"/>
</svg>
