<svg width="100" height="100" viewBox="0 0 100 100" fill="none" xmlns="http://www.w3.org/2000/svg">
<path d="M95.8333 0H4.16667C1.66667 0 0 1.81818 0 4.54545V59.0909C0 61.8182 1.66667 63.6364 4.16667 63.6364H95.8333C98.3333 63.6364 100 61.8182 100 59.0909V4.54545C100 1.81818 98.3333 0 95.8333 0ZM10.4167 40.9091C9.58333 40.9091 8.75 40.9091 8.33333 41.3636V22.2727C8.75 22.7273 9.58333 22.7273 10.4167 22.7273C16.25 22.7273 20.8333 17.7273 20.8333 11.3636C20.8333 10.4545 20.8333 9.54545 20.4167 9.09091H79.1667C79.1667 9.54545 79.1667 10.4545 79.1667 11.3636C79.1667 17.7273 83.75 22.7273 89.5833 22.7273C90.4167 22.7273 91.25 22.7273 91.6667 22.2727V40.9091C91.25 40.9091 90.4167 40.4545 89.5833 40.4545C83.75 40.4545 79.1667 45.4545 79.1667 51.8182C79.1667 52.7273 79.1667 53.6364 79.5833 54.0909H20.4167C20.8333 54.0909 20.8333 53.1818 20.8333 52.2727C20.8333 45.9091 16.25 40.9091 10.4167 40.9091ZM37.5 31.8182C37.5 24.0909 42.9167 18.1818 50 18.1818C57.0833 18.1818 62.5 24.0909 62.5 31.8182C62.5 39.5455 57.0833 45.4545 50 45.4545C42.9167 45.4545 37.5 39.5455 37.5 31.8182ZM8.33333 77.2727V72.7273H91.6667V77.2727C91.6667 80 90 81.8182 87.5 81.8182H12.5C10 81.8182 8.33333 80 8.33333 77.2727ZM18.3333 95.4545V90.9091H80.8333V95.4545C80.8333 98.1818 79.1667 100 76.6667 100H22.5C20 100 18.3333 98.1818 18.3333 95.4545Z" fill="#3A68DF"/>
</svg>
