<svg width="40" height="30" viewBox="0 0 40 30" fill="none" xmlns="http://www.w3.org/2000/svg">
<g clip-path="url(#clip0_391_4)">
<path d="M39.2118 29.5932V29.6703H39.2864C39.3004 29.6705 39.3142 29.6671 39.3264 29.6604C39.3313 29.6571 39.3352 29.6527 39.3378 29.6475C39.3405 29.6424 39.3417 29.6367 39.3414 29.6309C39.3417 29.6253 39.3404 29.6197 39.3378 29.6147C39.3352 29.6097 39.3313 29.6054 39.3264 29.6022C39.3144 29.5952 39.3005 29.5918 39.2864 29.5924H39.2118V29.5932ZM39.2872 29.5386C39.3192 29.5367 39.3509 29.5456 39.3768 29.5637C39.3872 29.5719 39.3955 29.5823 39.401 29.5942C39.4064 29.606 39.4089 29.619 39.4082 29.6319C39.4087 29.6431 39.4067 29.6542 39.4024 29.6645C39.398 29.6749 39.3914 29.6842 39.383 29.6919C39.363 29.7086 39.3379 29.7187 39.3114 29.7206L39.4114 29.8305H39.3344L39.2424 29.7214H39.2126V29.8305H39.1482V29.5388H39.2882L39.2872 29.5386ZM39.2672 29.9311C39.301 29.9314 39.3345 29.9249 39.3654 29.9119C39.3953 29.8995 39.4224 29.8817 39.4454 29.8596C39.4685 29.8375 39.4869 29.8113 39.4996 29.7825C39.5259 29.7214 39.5259 29.6527 39.4996 29.5916C39.4867 29.5629 39.4683 29.5367 39.4454 29.5145C39.4224 29.4924 39.3953 29.4746 39.3654 29.4622C39.3343 29.4499 39.3009 29.4438 39.2672 29.4441C39.233 29.4438 39.199 29.45 39.1672 29.4622C39.1367 29.4744 39.1089 29.4921 39.0854 29.5145C39.05 29.5495 39.0261 29.5937 39.0166 29.6417C39.0071 29.6897 39.0125 29.7393 39.032 29.7844C39.0442 29.8133 39.0624 29.8396 39.0854 29.8615C39.109 29.8839 39.1367 29.9016 39.1672 29.9138C39.1988 29.9268 39.2329 29.9334 39.2672 29.9331M39.2672 29.3739C39.3551 29.3738 39.4395 29.4071 39.5022 29.4665C39.5325 29.495 39.5565 29.529 39.573 29.5665C39.5901 29.6051 39.5989 29.6466 39.5989 29.6885C39.5989 29.7304 39.5901 29.7719 39.573 29.8104C39.5561 29.8478 39.5321 29.8817 39.5022 29.9105C39.4715 29.9389 39.4359 29.9617 39.3968 29.978C39.3559 29.9948 39.3118 30.0033 39.2672 30.003C39.2222 30.0034 39.1775 29.9948 39.136 29.978C39.0966 29.9621 39.0605 29.9392 39.0298 29.9105C38.9999 29.8807 38.9763 29.8456 38.96 29.8072C38.9429 29.7686 38.9341 29.7271 38.9341 29.6852C38.9341 29.6433 38.9429 29.6018 38.96 29.5633C38.9765 29.5257 39.0006 29.4917 39.0308 29.4632C39.0611 29.434 39.0973 29.411 39.137 29.3957C39.1785 29.3789 39.2232 29.3703 39.2682 29.3707M8.64323 28.2474C8.64323 27.6912 9.02123 27.2342 9.63903 27.2342C10.2294 27.2342 10.6278 27.6715 10.6278 28.2474C10.6278 28.8233 10.2294 29.2606 9.63903 29.2606C9.02123 29.2606 8.64323 28.8036 8.64323 28.2474ZM11.3008 28.2474V26.6645H10.587V27.0501C10.3606 26.7651 10.0172 26.5864 9.55023 26.5864C8.63023 26.5864 7.90823 27.282 7.90823 28.2482C7.90823 29.2143 8.62983 29.9099 9.55023 29.9099C10.017 29.9099 10.3606 29.731 10.587 29.4462V29.8305H11.3V28.2474H11.3008ZM35.4192 28.2474C35.4192 27.6912 35.7972 27.2342 36.4152 27.2342C37.0062 27.2342 37.404 27.6715 37.404 28.2474C37.404 28.8233 37.0062 29.2606 36.4152 29.2606C35.7974 29.2606 35.4192 28.8036 35.4192 28.2474ZM38.0776 28.2474V25.3939H37.3632V27.0501C37.1368 26.7651 36.7934 26.5864 36.3264 26.5864C35.4064 26.5864 34.6844 27.282 34.6844 28.2482C34.6844 29.2143 35.406 29.9099 36.3264 29.9099C36.7934 29.9099 37.1368 29.731 37.3632 29.4462V29.8305H38.0776V28.2474ZM20.16 27.2016C20.62 27.2016 20.9154 27.4797 20.9908 27.9692H19.2876C19.3638 27.5122 19.6516 27.2016 20.1602 27.2016M20.1744 26.5847C19.2124 26.5847 18.5394 27.2595 18.5394 28.2464C18.5394 29.2527 19.2394 29.9082 20.2222 29.9082C20.7166 29.9082 21.1694 29.7892 21.5678 29.4647L21.218 28.9548C20.9428 29.1669 20.5924 29.2858 20.263 29.2858C19.803 29.2858 19.3842 29.0805 19.2812 28.5108H21.7186C21.7256 28.4252 21.7328 28.3388 21.7328 28.2462C21.7256 27.2597 21.0928 26.5845 20.174 26.5845M28.792 28.2462C28.792 27.69 29.17 27.2331 29.7878 27.2331C30.3782 27.2331 30.7766 27.6703 30.7766 28.2462C30.7766 28.8221 30.3782 29.2594 29.7878 29.2594C29.17 29.2594 28.7918 28.8025 28.7918 28.2462M31.4494 28.2462V26.6645H30.736V27.0501C30.5088 26.7651 30.1662 26.5864 29.6992 26.5864C28.7792 26.5864 28.0572 27.282 28.0572 28.2482C28.0572 29.2143 28.7788 29.9099 29.6992 29.9099C30.1662 29.9099 30.5088 29.731 30.736 29.4462V29.8305H31.4496V28.2474L31.4494 28.2462ZM24.761 28.2462C24.761 29.2062 25.4542 29.908 26.5122 29.908C27.0066 29.908 27.336 29.802 27.6922 29.5307L27.3494 28.9744C27.0814 29.1601 26.8 29.2594 26.4894 29.2594C25.9196 29.2527 25.5006 28.8555 25.5006 28.2462C25.5006 27.637 25.9196 27.24 26.4894 27.2331C26.7992 27.2331 27.0806 27.3324 27.3494 27.518L27.6922 26.9618C27.3354 26.6905 27.006 26.5845 26.5122 26.5845C25.4542 26.5845 24.761 27.2861 24.761 28.2462ZM33.963 26.5845C33.5512 26.5845 33.283 26.7701 33.0976 27.0482V26.6645H32.3902V29.8288H33.1048V28.055C33.1048 27.5313 33.3382 27.2404 33.8048 27.2404C33.9576 27.2383 34.1093 27.2653 34.2512 27.32L34.4712 26.6714C34.3132 26.6115 34.1072 26.5851 33.9626 26.5851M14.8298 26.9161C14.4864 26.6978 14.0132 26.5851 13.4912 26.5851C12.6596 26.5851 12.1242 26.9693 12.1242 27.598C12.1242 28.114 12.5228 28.4323 13.2568 28.5316L13.594 28.5779C13.9854 28.6309 14.1702 28.7302 14.1702 28.9089C14.1702 29.1536 13.9102 29.2931 13.422 29.2931C12.9276 29.2931 12.5708 29.1408 12.3302 28.9621L11.9948 29.4987C12.3862 29.7767 12.8806 29.9093 13.416 29.9093C14.364 29.9093 14.9134 29.479 14.9134 28.8765C14.9134 28.3203 14.481 28.0293 13.7666 27.93L13.4302 27.883C13.1212 27.8444 12.8736 27.7845 12.8736 27.5724C12.8736 27.341 13.107 27.2018 13.4986 27.2018C13.9176 27.2018 14.3232 27.3541 14.522 27.4731L14.831 26.9169L14.8298 26.9161ZM24.04 26.5856C23.6282 26.5856 23.36 26.7713 23.1754 27.0493V26.6645H22.468V29.8288H23.1818V28.055C23.1818 27.5313 23.4152 27.2404 23.8818 27.2404C24.0346 27.2383 24.1863 27.2653 24.3282 27.32L24.5482 26.6714C24.3902 26.6115 24.1842 26.5851 24.0396 26.5851M17.9488 26.6645H16.7816V25.7045H16.06V26.6645H15.3942V27.2934H16.06V28.7369C16.06 29.4711 16.3556 29.9084 17.2 29.9084C17.5098 29.9084 17.8666 29.8158 18.093 29.6637L17.8868 29.0745C17.6738 29.1935 17.4404 29.2534 17.2548 29.2534C16.898 29.2534 16.7816 29.0414 16.7816 28.7238V27.294H17.9488V26.6645ZM7.27703 29.8295V27.8437C7.27703 27.0958 6.78263 26.5926 5.98563 26.5858C5.56663 26.5791 5.13443 26.7048 4.83183 27.1488C4.60543 26.7979 4.24863 26.5858 3.74703 26.5858C3.39643 26.5858 3.05383 26.6851 2.78563 27.0557V26.6645H2.07123V29.8288H2.79123V28.0743C2.79123 27.525 3.10723 27.2331 3.59523 27.2331C4.06923 27.2331 4.30903 27.5309 4.30903 28.0673V29.8284H5.03063V28.0739C5.03063 27.5246 5.36003 27.2327 5.83383 27.2327C6.32123 27.2327 6.55383 27.5306 6.55383 28.0669V29.828L7.27703 29.8295Z" fill="white"/>
<path d="M39.6188 19.3037V18.8409H39.4938L39.3492 19.1585L39.2054 18.8409H39.08V19.3037H39.1688V18.9551L39.304 19.2559H39.396L39.5312 18.9543V19.3037H39.6192H39.6188ZM38.8258 19.3037V18.9202H38.9858V18.8421H38.577V18.9202H38.737V19.3037H38.825H38.8258Z" fill="#F79410"/>
<path d="M25.4114 21.2882H14.5942V2.54785H25.4116L25.4114 21.2882Z" fill="#FF5F00"/>
<path d="M15.28 11.9185C15.28 8.11698 17.1264 4.7306 20.0016 2.54828C17.8252 0.893934 15.1334 -0.00393484 12.3618 1.2963e-05C5.5344 1.2963e-05 0 5.336 0 11.9185C0 18.5009 5.5344 23.8369 12.3618 23.8369C15.1334 23.8409 17.8254 22.943 20.0018 21.2886C17.1268 19.1067 15.28 15.7201 15.28 11.9185Z" fill="#EB001B"/>
<path d="M40.005 11.9185C40.005 18.5009 34.4706 23.8369 27.6432 23.8369C24.8713 23.8408 22.179 22.943 20.0022 21.2886C22.8782 19.1063 24.7246 15.7201 24.7246 11.9185C24.7246 8.11679 22.8782 4.7306 20.0022 2.54828C22.179 0.893984 24.8711 -0.00386564 27.643 1.25108e-05C34.4704 1.25108e-05 40.0048 5.336 40.0048 11.9185" fill="#F79E1B"/>
</g>
<defs>
<clipPath id="clip0_391_4">
<rect width="40" height="30" fill="white"/>
</clipPath>
</defs>
</svg>
