<svg width="25" height="20" viewBox="0 0 25 20" fill="none" xmlns="http://www.w3.org/2000/svg">
<path d="M20.3125 7.5H18.2291V5.41666C18.2291 4.20109 17.6255 3.0353 16.5511 2.17576C15.4767 1.31621 14.0194 0.833328 12.5 0.833328H11.4583C9.93882 0.833328 8.48159 1.31621 7.40716 2.17576C6.33273 3.0353 5.72913 4.20109 5.72913 5.41666V7.5H3.64579C3.36953 7.5 3.10457 7.58779 2.90922 7.74407C2.71387 7.90035 2.60413 8.11231 2.60413 8.33333V18.3333C2.60413 18.5543 2.71387 18.7663 2.90922 18.9226C3.10457 19.0789 3.36953 19.1667 3.64579 19.1667H20.3125C20.5887 19.1667 20.8537 19.0789 21.049 18.9226C21.2444 18.7663 21.3541 18.5543 21.3541 18.3333V8.33333C21.3541 8.11231 21.2444 7.90035 21.049 7.74407C20.8537 7.58779 20.5887 7.5 20.3125 7.5ZM7.81246 5.41666C7.81246 4.64311 8.19657 3.90125 8.8803 3.35427C9.56403 2.80729 10.4914 2.49999 11.4583 2.49999H12.5C13.4669 2.49999 14.3942 2.80729 15.078 3.35427C15.7617 3.90125 16.1458 4.64311 16.1458 5.41666V7.5H7.81246V5.41666ZM19.2708 17.5H4.68746V9.16666H19.2708V17.5Z" fill="#3A68DF"/>
<path d="M7.8125 14.5833C8.67544 14.5833 9.375 14.0237 9.375 13.3333C9.375 12.643 8.67544 12.0833 7.8125 12.0833C6.94956 12.0833 6.25 12.643 6.25 13.3333C6.25 14.0237 6.94956 14.5833 7.8125 14.5833Z" fill="#3A68DF"/>
<path d="M11.9791 14.5833C12.8421 14.5833 13.5416 14.0237 13.5416 13.3333C13.5416 12.643 12.8421 12.0833 11.9791 12.0833C11.1162 12.0833 10.4166 12.643 10.4166 13.3333C10.4166 14.0237 11.1162 14.5833 11.9791 14.5833Z" fill="#3A68DF"/>
<path d="M16.1458 14.5833C17.0087 14.5833 17.7083 14.0237 17.7083 13.3333C17.7083 12.643 17.0087 12.0833 16.1458 12.0833C15.2828 12.0833 14.5833 12.643 14.5833 13.3333C14.5833 14.0237 15.2828 14.5833 16.1458 14.5833Z" fill="#3A68DF"/>
</svg>
