<svg width="39" height="33" viewBox="0 0 39 33" fill="none" xmlns="http://www.w3.org/2000/svg">
<path d="M38.7326 9.7812C38.2434 8.65939 37.1723 7.93253 36.0082 7.93253L35.8701 7.93617L35.0822 7.97858C33.3136 5.47577 30.8345 3.54716 27.8483 2.36232C25.8964 1.5846 23.7196 1.12181 21.3785 0.988532C20.8917 0.961861 20.3965 0.947363 19.9014 0.947363C19.5456 0.947363 19.1825 0.954651 18.8136 0.967986C17.7246 1.0104 16.6487 1.15337 15.6144 1.39317C15.449 1.43194 15.2812 1.47311 15.1145 1.51676C13.0424 0.27865 11.0179 0 9.61468 0C9.49807 0 9.38495 0.00240347 9.27663 0.00488449C8.98977 0.014576 8.7803 0.025508 8.62202 0.0436505C8.30301 0.0776095 8.02453 0.164833 7.78771 0.290822C7.29975 0.501632 6.87959 0.860217 6.58564 1.32781C6.1536 2.0256 6.05244 2.86147 6.29878 3.62958L7.22114 6.50671C7.03787 6.73326 6.86527 6.96345 6.70219 7.19357C5.96782 8.24514 5.45609 9.21428 5.00615 10.0695C4.39799 11.2252 4.00282 11.9424 3.56605 12.1193L3.52796 12.1339L3.41728 12.1776L3.17209 12.2721C2.08542 12.6864 -0.457946 13.658 0.0716751 16.3498L0.187151 16.9458C0.63824 19.2791 0.938127 20.7498 1.13808 21.3652L1.2547 21.7274C1.6594 22.9812 1.91168 23.6185 3.21139 24.4713C3.78268 24.8445 4.47775 24.9777 5.21326 25.1159C5.43225 25.157 5.75126 25.2177 5.89522 25.2588C6.03447 25.3291 6.18209 25.3848 6.33557 25.4199C6.85209 25.5423 7.27104 25.6041 7.60909 25.6538C7.82808 25.6852 8.09948 25.7265 8.17321 25.758C8.21008 25.7846 8.48864 26.016 9.21935 27.3595L9.25744 27.4249C9.70495 28.176 10.187 29.3947 10.3465 29.7957C10.4309 30.0077 10.506 30.2027 10.5714 30.3687C10.7178 30.7467 10.7845 30.9211 10.8583 31.0714C11.4915 32.3556 12.6185 33 14.2122 33H16.4485C17.885 33 19.3347 31.9146 19.3347 29.4917V29.0362V28.6897H23.2873V29.0362V29.4917C23.2873 31.9146 24.7096 33 26.1188 33H28.2171C29.7893 33 30.8914 32.3386 31.4912 31.0363C31.5651 30.8752 31.6329 30.6898 31.7793 30.2864C31.8269 30.1567 31.8804 30.0101 31.9375 29.8527C32.8671 27.9822 33.7632 26.5285 34.7547 25.2856C36.8077 22.8287 37.8932 19.8123 37.8932 16.5645C37.8932 15.6935 37.8051 14.8019 37.6301 13.9078C37.7658 13.737 37.923 13.5468 38.105 13.342C39.0076 12.3228 39.248 10.9612 38.7326 9.7812ZM36.6272 11.9812C36.0345 12.6451 35.656 13.1926 35.4823 13.4592C35.7643 14.5252 35.9012 15.5768 35.9012 16.5641C35.9012 19.5454 34.8538 22.0434 33.2221 23.989C31.9165 25.6245 30.9227 27.3931 30.111 29.0359C29.9028 29.598 29.748 30.039 29.6873 30.1747C29.4778 30.6302 29.1624 30.9718 28.2174 30.9718C27.2736 30.9718 26.7487 30.9718 26.1191 30.9718C25.4907 30.9718 25.2812 30.2885 25.2812 29.4914C25.2812 29.3678 25.2812 29.2127 25.2812 29.0359V26.6602H17.3415V29.0359C17.3415 29.2127 17.3415 29.3678 17.3415 29.4914C17.3415 30.2885 17.1177 30.9718 16.4489 30.9718C15.7776 30.9718 15.217 30.9718 14.2126 30.9718C13.2045 30.9718 12.87 30.6302 12.6462 30.1747C12.5808 30.039 12.4177 29.598 12.1952 29.0359C11.8726 28.2218 11.4239 27.1484 10.9633 26.3731C9.27321 23.2718 8.94117 23.9502 6.78339 23.4439L6.78217 23.4415C6.3013 23.1604 4.75646 23.0708 4.29113 22.7655C3.44494 22.2107 3.47944 22.0944 3.03071 20.7279C2.7939 20.001 2.22261 16.953 2.02616 15.95C1.81189 14.8633 3.02828 14.501 4.14709 14.0649L4.30065 14.0044C6.08238 13.2848 6.49774 10.9854 8.32586 8.3712C8.65317 7.90477 9.03997 7.44082 9.47559 6.99501L8.19378 3.00211C8.13185 2.80828 8.15691 2.59507 8.26523 2.42062C8.37476 2.24618 8.55323 2.12988 8.75562 2.10561C8.75562 2.10561 8.47714 2.05956 9.33879 2.03289C9.42806 2.03048 9.5197 2.02924 9.61491 2.02924C10.942 2.02924 12.8831 2.33092 14.7958 3.72161C15.2005 3.59074 15.6206 3.47204 16.0562 3.37031C16.9465 3.16439 17.8891 3.03352 18.8889 2.99475C19.2317 2.98141 19.5697 2.97537 19.9017 2.97537C20.3671 2.97537 20.8217 2.98746 21.2657 3.01173C23.4985 3.1426 25.4444 3.58353 27.1237 4.25224C30.3824 5.54361 32.6401 7.69032 34.0493 10.0623C35.0955 10.009 35.2526 10.0005 35.9679 9.96301H36.0084C36.7736 9.96293 37.4615 11.0399 36.6272 11.9812Z" fill="#9DB2CE"/>
<path d="M8.5 16C7.67137 16 7 16.6701 7 17.5C7 18.3275 7.6713 19 8.5 19C9.3287 19 10 18.3275 10 17.5C9.99992 16.6701 9.32863 16 8.5 16Z" fill="#9DB2CE"/>
<path d="M15.9626 5.82629L15.8602 7.67704C16.0221 7.68184 16.2066 7.69136 16.4339 7.70325C18.1192 7.79374 20.7019 7.94128 23.9095 8.82678L24.0142 6.91532C20.6876 6.07027 18.2418 5.94885 16.535 5.85364C16.3173 5.84176 16.1268 5.8346 15.9626 5.82629Z" fill="#9DB2CE"/>
</svg>
