<svg width="24" height="24" viewBox="0 0 24 24" fill="none" xmlns="http://www.w3.org/2000/svg">
<path d="M5.26843 9.75005C5.26718 8.8609 5.44185 7.98029 5.78239 7.15895C6.12293 6.3376 6.6226 5.59174 7.25262 4.96432C7.88265 4.33691 8.63058 3.84035 9.45334 3.50323C10.2761 3.16611 11.1574 2.9951 12.0466 3.00004C15.7591 3.02817 18.7309 6.11254 18.7309 9.83442V10.5C18.7309 13.8563 19.434 15.8063 20.0528 16.875C20.1185 16.9889 20.1532 17.118 20.1533 17.2494C20.1534 17.3808 20.119 17.51 20.0535 17.6239C19.9879 17.7378 19.8936 17.8326 19.78 17.8986C19.6664 17.9646 19.5374 17.9996 19.4059 18H4.59343C4.462 17.9996 4.333 17.9646 4.21935 17.8986C4.10571 17.8326 4.0114 17.7378 3.94589 17.6239C3.88038 17.51 3.84595 17.3808 3.84607 17.2494C3.84619 17.118 3.88084 16.9889 3.94655 16.875C4.5653 15.8063 5.26843 13.8563 5.26843 10.5V9.75005Z" stroke="#3A68DF" stroke-width="1.5" stroke-linecap="round" stroke-linejoin="round"/>
<path d="M9 18V18.75C9 19.5456 9.31607 20.3087 9.87868 20.8713C10.4413 21.4339 11.2044 21.75 12 21.75C12.7956 21.75 13.5587 21.4339 14.1213 20.8713C14.6839 20.3087 15 19.5456 15 18.75V18" stroke="#3A68DF" stroke-width="1.5" stroke-linecap="round" stroke-linejoin="round"/>
<circle cx="17" cy="6" r="3.5" fill="#E34255" stroke="#EEEDEB"/>
</svg>
